<svg version="1.1" id="Layer_1" xmlns="http://www.w3.org/2000/svg" xmlns:xlink="http://www.w3.org/1999/xlink" x="0px" y="0px"
	 width="100%" viewBox="0 0 756 745" enable-background="new 0 0 756 745" xml:space="preserve">
<path fill="#FFFFFF" opacity="1.000000" stroke="none" 
	d="
M1.000000,503.000000 
	C1.000000,335.743317 1.000000,168.486649 1.000000,1.000000 
	C149.355270,1.000000 297.710663,1.000000 446.427246,1.334657 
	C445.187195,2.757892 443.585907,3.846469 441.984589,4.935047 
	C441.935059,4.537734 441.885498,4.140421 441.835968,3.743108 
	C439.610138,3.948346 436.872589,3.414215 435.271637,4.522279 
	C432.473846,6.458700 434.335754,8.629669 436.015106,10.752004 
	C436.631378,11.530820 436.282410,13.953238 435.491150,14.756743 
	C434.346954,15.918598 432.408539,16.310427 430.792664,16.992189 
	C429.229065,17.651890 427.644897,18.262785 426.069763,18.895111 
	C426.866760,20.245321 427.609558,21.632324 428.488373,22.927011 
	C428.824219,23.421803 429.471344,23.705324 429.315460,23.588146 
	C432.783112,22.826914 435.564728,22.216290 439.895813,21.265514 
	C436.715210,28.410336 442.971344,34.849937 438.971161,40.034824 
	C436.242249,38.908123 433.577942,36.849518 432.428192,37.493782 
	C426.375061,40.885704 419.102661,42.955360 415.791656,51.034817 
	C417.171387,52.198772 419.027069,53.410301 420.431458,55.016441 
	C424.391052,59.544823 427.364288,60.150585 432.489594,57.084801 
	C435.822815,55.090965 438.984833,52.724121 442.504333,51.153633 
	C445.820343,49.673950 449.659271,47.819771 452.993652,48.251366 
	C459.821228,49.135120 467.156525,45.126663 473.715942,50.733746 
	C475.160431,51.968529 477.410065,52.128101 478.113129,54.659798 
	C478.492371,56.025337 479.867706,57.114265 481.044495,58.656857 
	C482.277496,57.263672 483.332153,56.520874 483.755188,55.512962 
	C485.245758,51.961491 487.034485,52.504921 489.290649,54.759918 
	C494.855591,60.322071 494.880066,60.297585 502.225067,56.117367 
	C501.525970,54.390755 500.808899,52.619751 499.958527,50.519520 
	C502.222961,49.479671 504.504547,48.431942 506.721375,47.413963 
	C506.721375,45.645126 506.721375,43.886726 506.721375,43.412830 
	C502.543213,43.085659 497.568329,44.136772 495.350006,42.134254 
	C492.927795,39.947647 493.057587,34.933987 492.144836,31.421309 
	C487.778809,33.070942 483.374481,34.735031 478.463684,36.590492 
	C471.692657,33.298031 471.692657,33.298031 468.620575,40.358929 
	C468.004700,37.556015 467.735321,34.702358 468.079773,31.924826 
	C468.430298,29.098501 469.385315,26.347147 470.124023,23.367735 
	C465.654572,22.113531 463.211975,19.428448 461.931610,15.169034 
	C460.357391,9.932081 458.990265,4.400053 454.000000,1.000000 
	C554.907471,1.000000 655.814880,1.000000 757.000000,1.000000 
	C757.000000,57.688377 757.000000,114.377213 756.657288,171.437088 
	C752.870850,169.453934 749.490540,167.083145 754.523132,162.584305 
	C749.842163,160.682129 749.366882,158.467346 752.489563,154.768234 
	C755.445190,151.266968 753.269348,147.423920 751.301758,144.102585 
	C745.943909,135.058533 734.801636,137.280579 727.371765,132.136322 
	C726.636963,131.627594 724.718323,133.063156 723.306091,133.228821 
	C722.035522,133.377838 720.220703,133.522766 719.480896,132.806778 
	C714.689697,128.169861 713.956970,127.603828 707.956177,133.476166 
	C701.812378,139.488464 696.798462,146.928116 687.347717,149.833542 
	C688.736145,151.827911 689.891846,153.487991 691.260803,155.454361 
	C688.346802,157.605835 685.450867,159.536514 682.786865,161.746735 
	C671.278076,171.295151 661.751404,168.506042 651.293823,161.631805 
	C650.563354,161.151672 649.971558,160.196991 649.211731,160.066727 
	C642.794006,158.966385 636.376526,157.772400 629.907776,157.097305 
	C626.339172,156.724869 622.476074,156.624481 619.101074,157.613785 
	C615.160400,158.768890 611.607300,161.245987 607.496277,163.348831 
	C606.212219,161.934128 604.924255,160.636993 603.775391,159.226501 
	C600.405396,155.088928 591.710571,153.135895 587.073547,156.058746 
	C582.498779,158.942368 578.348450,161.915970 572.664856,158.491196 
	C571.734985,157.930878 569.474731,159.144257 568.118958,159.997894 
	C567.727844,160.244156 568.644104,162.157394 568.429749,163.196823 
	C568.157593,164.516403 567.654175,166.458420 566.711853,166.856277 
	C562.069702,168.816101 562.261780,164.717468 561.483582,161.477722 
	C558.943115,163.427948 556.833618,165.047302 554.480835,166.853470 
	C558.310059,170.330948 557.354126,172.490005 553.475647,174.161987 
	C547.005798,176.951050 540.592712,179.871933 534.182800,182.725266 
	C531.306213,181.447296 527.493591,180.911789 524.847473,183.243195 
	C521.550598,186.147980 517.394714,186.488159 513.863892,188.510895 
	C508.754883,191.437668 506.643280,190.650894 503.224609,185.627304 
	C500.804047,182.070312 494.068604,180.282181 489.886047,181.417465 
	C487.001221,182.200516 485.533966,180.585526 484.824066,177.339493 
	C484.117584,174.109253 482.365906,170.896240 480.337372,168.236374 
	C478.836243,166.268036 476.156525,165.198563 475.016113,164.420578 
	C475.346832,161.423981 476.360199,159.082413 475.649689,157.529739 
	C472.010834,149.577957 468.023621,141.779297 463.966217,134.027588 
	C461.291962,128.918427 458.670197,123.707695 455.317749,119.051620 
	C452.745117,115.478622 448.757111,112.953011 445.961029,109.505417 
	C442.490479,105.226204 437.275787,100.617561 436.989716,95.898109 
	C436.532013,88.347000 429.184601,88.863297 426.974457,84.135361 
	C426.230469,82.543816 425.182129,80.956100 423.889343,79.792961 
	C422.086975,78.171387 419.924316,76.950218 417.560242,75.311134 
	C417.220520,76.684776 417.227112,77.228928 416.974030,77.592216 
	C414.662476,80.910622 412.703552,84.638481 409.772247,87.283112 
	C408.548859,88.386841 405.231323,87.106606 402.861969,87.021088 
	C400.614502,86.939964 398.361786,87.003647 395.680786,87.003647 
	C396.376007,89.395142 396.862244,91.067711 397.424896,93.003159 
	C401.293213,93.003159 405.182373,92.533386 408.907013,93.115700 
	C414.200867,93.943336 412.096039,99.328697 414.472137,102.505371 
	C411.956146,103.330872 410.003784,103.971451 407.765442,104.705864 
	C408.381439,108.933258 412.412537,113.835106 406.519196,116.922707 
	C405.286560,117.568504 402.740692,115.707710 399.929688,114.685539 
	C395.970734,117.220474 391.341187,121.657623 384.482422,120.079803 
	C383.894592,119.944580 382.959045,120.613686 382.408752,121.142120 
	C379.718170,123.725929 377.283569,126.605133 374.427643,128.982452 
	C366.389160,135.673767 359.535217,143.954895 349.121338,147.502655 
	C345.786163,148.638870 342.766815,150.702148 340.461517,151.896484 
	C341.615051,154.806946 343.129395,156.691147 342.864349,158.278168 
	C341.321472,167.516159 342.376648,177.249420 337.646088,185.919342 
	C336.673218,187.702377 336.200775,189.913925 336.057617,191.967010 
	C335.477051,200.292862 327.860046,205.598862 319.947937,203.042587 
	C318.574890,202.598969 317.157196,202.293671 315.533691,201.864670 
	C315.122223,203.397705 314.860992,204.806213 314.358429,206.122620 
	C313.840363,207.479721 313.242035,208.856079 312.411133,210.035416 
	C308.215576,215.990311 308.206360,216.476410 312.917084,221.432724 
	C316.078339,224.758789 315.569153,227.001266 312.371765,230.404434 
	C310.042633,232.883484 307.876038,236.104599 307.137573,239.337631 
	C306.241791,243.259445 306.924988,247.541916 306.924988,251.879501 
	C302.628967,251.677399 302.020721,253.268219 303.872894,256.619659 
	C305.274506,259.155762 306.319122,261.928345 307.215637,264.695160 
	C308.557159,268.835236 311.803864,272.815552 308.336090,277.543488 
	C307.894531,278.145538 309.246460,280.063019 310.125854,282.270660 
	C300.883789,286.095673 297.720367,295.212921 293.184296,303.376373 
	C290.137268,308.859985 287.063721,314.500488 282.988861,319.190491 
	C279.309998,323.424805 274.302002,326.524200 269.797180,330.017059 
	C258.886444,338.476807 246.016449,343.081238 233.356766,347.922913 
	C217.031052,354.166656 203.003403,362.479034 194.690353,379.049011 
	C191.125793,386.154053 185.637573,392.725037 177.539276,396.273590 
	C172.371933,398.537872 167.584122,401.733826 162.788589,404.768707 
	C148.927963,413.540527 136.940262,425.426270 120.103554,429.255707 
	C116.616661,430.048767 111.298065,432.903534 113.346634,437.820770 
	C114.854172,441.439362 113.933624,443.379700 112.020218,446.360535 
	C111.004173,445.409851 109.143898,443.826477 109.223969,443.721344 
	C111.671371,440.508911 107.266441,441.073761 106.960480,439.486938 
	C105.527969,439.941620 103.707787,439.993774 102.737434,440.928345 
	C100.084869,443.482941 97.425903,446.176941 95.461899,449.257263 
	C93.681381,452.049774 92.112587,451.471924 91.189987,449.356384 
	C89.476288,445.426849 86.557014,445.840851 83.415871,446.189056 
	C82.980606,447.824585 82.582481,449.320587 82.401550,450.000427 
	C79.631195,449.714325 76.456573,448.533783 75.595436,449.473450 
	C73.751991,451.484985 73.104469,454.592590 72.182800,456.747192 
	C69.571510,456.300354 66.504295,455.621277 63.401814,455.358276 
	C62.669666,455.296204 61.675255,456.542511 61.126667,457.395935 
	C60.994781,457.601135 62.080578,458.740082 62.744888,459.278778 
	C65.112305,461.198761 67.539429,463.045135 70.226860,465.139893 
	C68.872963,466.887115 67.545563,468.600159 66.433945,470.034729 
	C63.295807,467.864166 60.691433,466.062805 57.834354,464.086670 
	C56.968109,466.966400 56.520203,468.455444 55.650131,471.347900 
	C54.749672,468.963776 54.203072,467.998932 54.029789,466.971161 
	C53.404282,463.261017 50.769630,462.922424 48.808731,464.936646 
	C42.549088,471.366455 33.718674,473.640991 27.024820,479.822754 
	C18.526033,487.671326 8.544029,493.964050 1.000000,503.000000 
M449.912872,89.584534 
	C449.912872,92.079384 449.912872,94.574234 449.912872,98.092941 
	C447.416321,100.495193 446.971649,103.815048 449.853516,104.901321 
	C453.464630,106.262482 459.572449,104.534203 462.028717,101.491783 
	C464.694519,98.189835 466.942261,94.357010 470.173401,91.747742 
	C475.766663,87.230995 479.636139,80.869904 486.691956,77.762207 
	C489.951202,76.326691 491.959076,72.050102 494.534332,69.061653 
	C494.133209,68.629532 493.732117,68.197418 493.330994,67.765297 
	C491.240845,68.495796 489.161560,69.259392 487.058502,69.950577 
	C480.824249,71.999535 479.963379,71.458519 477.530914,65.172699 
	C476.815887,63.324909 475.567139,60.601063 474.137299,60.299957 
	C467.959900,58.999035 461.624603,58.447826 455.894989,57.695782 
	C452.415985,63.268806 449.983948,67.973007 456.532440,72.323715 
	C458.326843,73.515892 459.094940,76.362068 460.107788,78.553787 
	C460.406281,79.199707 459.928986,80.204170 459.862030,80.666107 
	C457.936188,79.587471 456.105286,77.821602 455.197937,78.210510 
	C453.401703,78.980446 452.115723,80.940857 450.761047,82.269623 
	C449.721130,79.783966 442.598297,75.762054 440.037872,77.129639 
	C435.170990,79.729134 440.064545,82.966705 439.653046,84.764275 
	C443.289276,86.315842 446.357208,87.624916 449.912872,89.584534 
M520.472534,27.991396 
	C521.911926,28.414490 523.351257,28.837584 524.983948,29.317493 
	C523.879822,32.205513 522.449463,34.565861 522.224365,37.036015 
	C522.081726,38.602295 523.344482,41.176186 524.672546,41.787914 
	C526.599243,42.675381 528.712402,42.066269 529.096008,38.869308 
	C529.608276,34.599590 530.784058,30.409472 531.674866,26.185165 
	C532.021790,26.095015 532.368713,26.004866 532.715637,25.914717 
	C533.326355,28.534496 533.937134,31.154276 534.915222,35.349911 
	C537.084717,32.505211 539.234436,30.615637 540.159607,28.247633 
	C541.433044,24.987946 542.408020,21.970064 545.982605,20.364019 
	C547.543335,19.662807 548.765991,17.993078 549.881165,16.560045 
	C552.508057,13.184416 550.433167,10.569146 548.401489,7.831517 
	C545.940552,4.515530 543.722656,6.499130 541.785706,8.104716 
	C537.233032,11.878464 532.882751,15.896486 528.627747,19.659065 
	C526.160828,17.017706 523.801392,14.276351 521.185364,11.806709 
	C520.267517,10.940220 518.719727,10.741039 517.459595,10.237134 
	C517.296265,11.984554 516.966309,13.737233 517.021240,15.477764 
	C517.066895,16.924862 517.565063,18.357676 517.862793,19.796816 
	C517.992126,19.365879 518.121521,18.934944 518.250854,18.504007 
	C515.688721,16.695906 513.210144,14.745913 510.517242,13.159884 
	C509.625610,12.634756 507.777985,12.538166 507.055145,13.111957 
	C501.769135,17.308065 499.849335,27.873137 503.193420,34.152649 
	C505.984985,32.482632 508.617798,30.441216 511.593262,29.271667 
	C514.077759,28.295103 516.963562,28.339661 520.472534,27.991396 
M264.477112,161.015015 
	C263.119202,162.968689 262.160736,165.503586 260.326508,166.764099 
	C255.359634,170.177429 255.261902,169.922623 258.972076,174.521362 
	C260.488708,176.401215 261.588318,178.625809 263.161102,180.449066 
	C264.203430,181.657379 265.749176,182.431427 267.275848,183.551178 
	C269.760468,175.914429 270.326324,175.931915 277.431061,177.536957 
	C279.690460,178.047379 282.921539,176.732513 284.876160,175.195236 
	C286.064178,174.260880 286.354950,171.071381 285.770874,169.321411 
	C285.221252,167.674789 282.994843,166.587784 281.569000,165.310852 
	C287.699860,162.089859 287.379883,162.159790 285.865723,155.231979 
	C285.394501,153.075989 287.210358,150.440887 287.902069,148.003235 
	C288.424042,146.163696 288.823090,144.289246 289.324524,142.235168 
	C287.050903,142.235168 285.624939,142.235168 284.199005,142.235168 
	C281.764771,147.136719 278.778259,151.436844 275.098938,155.026947 
	C273.997589,156.101608 270.961029,155.192978 269.105042,155.192978 
	C267.699585,157.009598 266.355682,158.746674 264.477112,161.015015 
M306.328522,204.939148 
	C306.800507,204.486343 307.610199,204.085938 307.689911,203.572266 
	C308.226776,200.112564 307.636627,196.218185 311.807343,194.319778 
	C312.018829,194.223511 311.916595,192.546417 311.470215,192.126114 
	C310.934418,191.621704 309.815033,191.384293 309.046936,191.534668 
	C302.127960,192.889420 298.131622,199.222733 291.879242,201.795319 
	C291.354340,202.011307 291.107483,203.527039 291.162994,204.411850 
	C291.324890,206.992508 291.567230,209.585052 292.037537,212.124893 
	C292.561279,214.953262 292.887970,217.990387 294.216125,220.440186 
	C295.187256,222.231491 305.966309,220.799088 307.933533,219.031204 
	C305.811310,214.593414 299.596191,212.567688 300.012329,206.592667 
	C302.125122,206.009705 303.811249,205.544479 306.328522,204.939148 
M399.118683,57.003853 
	C393.484314,57.006145 387.848389,56.942501 382.216980,57.072720 
	C381.226257,57.095631 379.835419,57.686584 379.387878,58.456268 
	C378.910858,59.276615 378.872467,61.163559 379.440369,61.646255 
	C382.750946,64.460182 386.295990,66.998291 390.469330,70.166733 
	C390.723267,64.403954 394.147644,63.821739 397.625275,62.915146 
	C400.002777,62.295357 402.169891,60.868587 405.619995,59.242092 
	C402.584045,58.054520 401.280182,57.544491 399.118683,57.003853 
M237.673721,172.922684 
	C239.129990,171.855331 240.904007,171.038498 241.981171,169.672256 
	C244.871490,166.006256 247.534836,162.152145 250.106491,158.252823 
	C250.553162,157.575562 250.446152,156.095612 249.983536,155.383652 
	C249.551895,154.719376 248.149338,154.079010 247.445221,154.298325 
	C243.215729,155.615753 239.064377,157.184082 234.407333,158.838730 
	C235.801666,161.350693 236.938995,163.399673 238.216019,165.700302 
	C233.064758,167.405579 235.719864,169.983490 237.673721,172.922684 
M290.047546,178.535583 
	C293.200409,178.535583 296.353271,178.535583 299.999908,178.535583 
	C299.999908,176.682114 299.830414,174.562271 300.036499,172.479599 
	C300.422943,168.574066 297.936768,166.363617 294.941864,165.729462 
	C293.241821,165.369492 290.664185,167.114532 289.100433,168.574280 
	C285.818756,171.637726 287.104614,174.935074 290.047546,178.535583 
M220.094986,159.364258 
	C219.339249,162.451950 218.583511,165.539642 217.806137,168.715714 
	C225.342392,169.223602 230.263245,164.823013 231.644684,156.115112 
	C227.747101,157.070251 224.221786,157.934174 220.094986,159.364258 
M510.959442,38.998142 
	C510.597015,39.536697 509.895996,40.099545 509.932556,40.609478 
	C510.069794,42.522362 509.765594,45.269650 510.869049,46.153641 
	C513.702881,48.423820 514.436890,45.953506 515.311707,43.494583 
	C516.223450,40.931889 517.894897,38.638969 519.238831,36.230713 
	C520.989624,33.093594 519.999207,31.245356 516.432190,31.001144 
	C511.280884,30.648468 511.009857,31.003710 510.959442,38.998142 
M412.996674,60.922600 
	C412.060486,57.413376 410.655182,54.389229 406.317139,54.052261 
	C405.295380,65.957298 405.295380,65.957298 412.999634,65.609985 
	C412.999634,64.345390 412.999634,63.059319 412.996674,60.922600 
M309.875580,170.446014 
	C310.748352,166.745132 308.793488,164.615494 305.805725,162.861359 
	C304.961456,163.636002 304.134186,164.219650 303.538055,164.983643 
	C302.669037,166.097305 301.966248,167.340652 301.192566,168.528702 
	C302.687653,169.352234 304.113190,170.376495 305.702728,170.927536 
	C306.733856,171.285004 308.004395,170.951828 309.875580,170.446014 
z"/>
<path fill="#FFFFFF" opacity="1.000000" stroke="none" 
	d="
M757.000000,184.000000 
	C757.000000,371.261261 757.000000,558.522522 757.000000,746.000000 
	C578.307556,746.000000 399.615021,746.000000 220.600464,745.640015 
	C223.200851,744.344482 226.074356,743.190491 229.056747,742.522705 
	C234.012955,741.413025 234.742859,738.360901 233.597992,734.089172 
	C229.828552,734.877380 226.220795,735.631714 222.190094,736.474487 
	C224.024780,729.867737 229.791031,730.417542 233.900940,728.472961 
	C232.748962,722.962830 228.901337,721.784851 223.795334,722.350098 
	C227.931320,718.020325 231.946304,721.014526 234.225830,721.252380 
	C236.254456,724.572327 237.187119,728.130249 238.993805,728.649963 
	C243.301849,729.889282 248.022461,729.694336 252.748962,730.093201 
	C253.812088,723.728333 248.271851,724.545959 245.469772,722.399048 
	C248.190842,720.828430 250.562134,719.605225 253.074005,723.258179 
	C253.767670,724.266907 256.655182,724.130432 258.455750,723.897705 
	C259.851166,723.717346 261.121368,722.568542 263.581299,721.235901 
	C262.778503,723.089844 262.687042,723.930176 262.297913,724.103943 
	C257.511017,726.241394 258.698395,728.544189 261.746246,731.398621 
	C262.909332,732.487915 263.680298,734.371155 263.920715,735.997375 
	C264.545013,740.220337 265.854950,741.021790 269.763214,739.050293 
	C273.078949,737.377747 276.394318,735.704346 279.716553,734.044739 
	C282.732941,732.537964 287.776733,731.634460 288.411194,729.445862 
	C290.536530,722.114441 296.265259,722.702698 301.131714,721.762878 
	C302.378387,718.256348 303.219513,714.769409 304.815186,711.671143 
	C307.079987,707.273315 307.577209,703.259155 304.564056,699.032776 
	C302.850159,696.628845 302.050079,694.124329 304.644104,691.488586 
	C305.200317,690.923462 304.896667,688.321594 304.254333,687.958740 
	C299.765503,685.423157 301.047668,681.264160 301.028625,677.528503 
	C300.992950,670.530457 297.861176,665.308716 292.378693,661.371521 
	C292.942200,660.128723 293.326599,658.631287 294.186279,657.492859 
	C298.848267,651.319397 298.039062,637.402039 292.599915,632.210632 
	C289.362457,629.120789 285.863403,626.262146 282.936157,622.903625 
	C280.596405,620.219116 276.274231,617.670776 280.349487,612.993286 
	C280.854584,612.413574 280.353821,610.563904 279.831787,609.554871 
	C278.118622,606.243408 275.730042,603.205261 274.523010,599.740784 
	C273.936340,598.056824 275.397827,595.659302 275.932098,593.584778 
	C277.831085,594.154053 280.195007,594.208069 281.525055,595.407959 
	C283.776794,597.439392 285.181427,600.378052 287.288422,602.608215 
	C291.828674,607.413879 296.391144,612.236816 301.348969,616.592224 
	C303.564575,618.538696 306.714844,619.253113 309.254395,616.243896 
	C313.168427,611.605957 317.209686,607.073669 321.058472,602.382935 
	C324.559387,598.116150 327.493652,593.615234 328.090912,587.805298 
	C328.527130,583.561462 331.364258,581.144775 335.750031,581.016174 
	C342.401245,580.821045 344.337067,580.320435 343.348511,570.402710 
	C342.908264,565.985901 343.012573,560.895813 344.802002,556.998535 
	C349.152954,547.522339 356.315918,541.253906 366.995605,538.152710 
	C375.847504,535.582275 383.981384,530.447205 392.304871,526.196594 
	C395.403442,524.614258 399.992035,524.435608 400.030792,519.217407 
	C400.058411,515.497253 400.962585,511.695465 400.444336,508.077820 
	C399.344330,500.398438 394.302124,495.385101 387.181885,493.207428 
	C381.941345,491.604645 380.375183,488.297577 379.990753,483.568695 
	C379.716888,480.200256 378.803284,477.371918 375.139832,475.950043 
	C371.526367,474.547546 370.217285,471.814728 369.782654,467.655518 
	C369.090027,461.027405 367.558960,454.347015 363.283264,448.786530 
	C359.070282,443.307617 358.880066,443.045074 364.087372,438.967224 
	C368.278534,435.685150 372.982300,431.392212 378.708649,434.170807 
	C387.519287,438.446014 397.059631,438.454254 406.287476,439.715668 
	C412.412079,440.552887 418.975159,439.542419 425.213623,439.372375 
	C434.573792,439.117188 443.820679,434.707764 453.115723,432.064911 
	C452.669220,431.672089 452.222687,431.279236 451.776154,430.886414 
	C452.585480,428.357758 453.041229,425.637665 454.283569,423.343506 
	C456.360168,419.508789 458.794464,415.841919 461.347321,412.298248 
	C463.919739,408.727448 466.464050,405.010254 469.656189,402.040283 
	C475.045380,397.026245 475.626740,394.459381 471.442719,387.885651 
	C465.594971,378.697906 466.580658,373.332886 475.609497,367.016266 
	C477.871887,365.433472 480.624817,364.551819 483.827118,363.026550 
	C482.024933,361.660797 480.733093,360.936005 479.777802,359.900696 
	C478.188904,358.178650 475.305389,355.917755 475.628174,354.482147 
	C476.702515,349.704620 478.424774,344.856476 481.014069,340.736389 
	C482.140015,338.944733 485.975128,338.842560 488.589172,338.002136 
	C492.990692,336.587036 497.429871,335.965393 498.268585,329.613953 
	C499.315369,321.686829 500.185028,313.005280 510.370148,310.512482 
	C509.531219,308.302551 508.925293,306.706360 508.307281,305.078339 
	C510.103821,303.324554 511.673126,301.574860 513.462524,300.090515 
	C517.342896,296.871704 519.616882,293.349182 517.188049,288.094055 
	C516.850281,287.363251 517.914001,285.522644 518.809631,284.761353 
	C523.435120,280.829773 527.130371,276.711182 528.542419,270.268829 
	C530.061096,263.339996 533.816040,262.707916 539.818237,267.323700 
	C545.647522,271.806427 548.547791,270.215759 554.103760,267.280853 
	C558.299500,265.064423 560.425598,261.022308 562.037170,256.643524 
	C563.198242,253.488815 564.458557,250.270966 566.293274,247.489365 
	C568.524170,244.107086 571.494080,242.990646 575.406250,245.785034 
	C578.814392,248.219421 582.627991,250.129639 586.405518,251.979355 
	C587.703613,252.615005 589.711792,252.964615 590.911621,252.405807 
	C593.830017,251.046646 596.427795,249.015869 599.222107,247.369904 
	C603.756958,244.698654 608.225586,240.984787 613.778992,245.046432 
	C618.236267,248.306351 621.794739,247.456497 625.244141,243.384766 
	C628.912903,239.054153 633.588745,239.408066 638.450806,241.150925 
	C640.557190,241.905975 643.239746,243.456726 644.852539,242.764206 
	C651.408325,239.949188 657.628662,241.501785 663.962830,243.044983 
	C670.428223,244.620163 671.702087,243.896133 674.019409,237.784149 
	C674.693787,236.005630 675.614319,234.210999 676.833435,232.772385 
	C679.032227,230.177902 681.593018,227.894455 683.911194,225.396255 
	C691.456787,217.264755 689.438049,213.452286 701.234375,221.087463 
	C705.678284,223.963760 709.118225,223.491699 712.226379,219.295456 
	C714.969299,215.592255 718.045105,214.756775 721.731201,218.183167 
	C724.205688,220.483292 726.791077,220.124832 729.843323,218.761169 
	C733.018250,217.342743 736.575562,216.493881 740.046265,216.091537 
	C745.087830,215.507095 749.863403,210.623810 750.048401,205.400208 
	C750.116028,203.490982 750.086243,200.937820 751.223206,199.824432 
	C754.959534,196.165405 754.513489,192.934265 750.976196,189.343124 
	C753.074463,187.481949 755.037231,185.740967 757.000000,184.000000 
z"/>
<path fill="#669900" opacity="1.000000" stroke="none" 
	d="
M757.000000,183.539352 
	C755.037231,185.740967 753.074463,187.481949 750.976196,189.343124 
	C754.513489,192.934265 754.959534,196.165405 751.223206,199.824432 
	C750.086243,200.937820 750.116028,203.490982 750.048401,205.400208 
	C749.863403,210.623810 745.087830,215.507095 740.046265,216.091537 
	C736.575562,216.493881 733.018250,217.342743 729.843323,218.761169 
	C726.791077,220.124832 724.205688,220.483292 721.731201,218.183167 
	C718.045105,214.756775 714.969299,215.592255 712.226379,219.295456 
	C709.118225,223.491699 705.678284,223.963760 701.234375,221.087463 
	C689.438049,213.452286 691.456787,217.264755 683.911194,225.396255 
	C681.593018,227.894455 679.032227,230.177902 676.833435,232.772385 
	C675.614319,234.210999 674.693787,236.005630 674.019409,237.784149 
	C671.702087,243.896133 670.428223,244.620163 663.962830,243.044983 
	C657.628662,241.501785 651.408325,239.949188 644.852539,242.764206 
	C643.239746,243.456726 640.557190,241.905975 638.450806,241.150925 
	C633.588745,239.408066 628.912903,239.054153 625.244141,243.384766 
	C621.794739,247.456497 618.236267,248.306351 613.778992,245.046432 
	C608.225586,240.984787 603.756958,244.698654 599.222107,247.369904 
	C596.427795,249.015869 593.830017,251.046646 590.911621,252.405807 
	C589.711792,252.964615 587.703613,252.615005 586.405518,251.979355 
	C582.627991,250.129639 578.814392,248.219421 575.406250,245.785034 
	C571.494080,242.990646 568.524170,244.107086 566.293274,247.489365 
	C564.458557,250.270966 563.198242,253.488815 562.037170,256.643524 
	C560.425598,261.022308 558.299500,265.064423 554.103760,267.280853 
	C548.547791,270.215759 545.647522,271.806427 539.818237,267.323700 
	C533.816040,262.707916 530.061096,263.339996 528.542419,270.268829 
	C527.130371,276.711182 523.435120,280.829773 518.809631,284.761353 
	C517.914001,285.522644 516.850281,287.363251 517.188049,288.094055 
	C519.616882,293.349182 517.342896,296.871704 513.462524,300.090515 
	C511.673126,301.574860 510.103821,303.324554 508.307281,305.078339 
	C508.925293,306.706360 509.531219,308.302551 510.370148,310.512482 
	C500.185028,313.005280 499.315369,321.686829 498.268585,329.613953 
	C497.429871,335.965393 492.990692,336.587036 488.589172,338.002136 
	C485.975128,338.842560 482.140015,338.944733 481.014069,340.736389 
	C478.424774,344.856476 476.702515,349.704620 475.628174,354.482147 
	C475.305389,355.917755 478.188904,358.178650 479.777802,359.900696 
	C480.733093,360.936005 482.024933,361.660797 483.827118,363.026550 
	C480.624817,364.551819 477.871887,365.433472 475.609497,367.016266 
	C466.580658,373.332886 465.594971,378.697906 471.442719,387.885651 
	C475.626740,394.459381 475.045380,397.026245 469.656189,402.040283 
	C466.464050,405.010254 463.919739,408.727448 461.347321,412.298248 
	C458.794464,415.841919 456.360168,419.508789 454.283569,423.343506 
	C453.041229,425.637665 452.585480,428.357758 451.776154,430.886414 
	C452.222687,431.279236 452.669220,431.672089 453.115723,432.064911 
	C443.820679,434.707764 434.573792,439.117188 425.213623,439.372375 
	C418.975159,439.542419 412.412079,440.552887 406.287476,439.715668 
	C397.059631,438.454254 387.519287,438.446014 378.708649,434.170807 
	C372.982300,431.392212 368.278534,435.685150 364.087372,438.967224 
	C358.880066,443.045074 359.070282,443.307617 363.283264,448.786530 
	C367.558960,454.347015 369.090027,461.027405 369.782654,467.655518 
	C370.217285,471.814728 371.526367,474.547546 375.139832,475.950043 
	C378.803284,477.371918 379.716888,480.200256 379.990753,483.568695 
	C380.375183,488.297577 381.941345,491.604645 387.181885,493.207428 
	C394.302124,495.385101 399.344330,500.398438 400.444336,508.077820 
	C400.962585,511.695465 400.058411,515.497253 400.030792,519.217407 
	C399.992035,524.435608 395.403442,524.614258 392.304871,526.196594 
	C383.981384,530.447205 375.847504,535.582275 366.995605,538.152710 
	C356.315918,541.253906 349.152954,547.522339 344.802002,556.998535 
	C343.012573,560.895813 342.908264,565.985901 343.348511,570.402710 
	C344.337067,580.320435 342.401245,580.821045 335.750031,581.016174 
	C331.364258,581.144775 328.527130,583.561462 328.090912,587.805298 
	C327.493652,593.615234 324.559387,598.116150 321.058472,602.382935 
	C317.209686,607.073669 313.168427,611.605957 309.254395,616.243896 
	C306.714844,619.253113 303.564575,618.538696 301.348969,616.592224 
	C296.391144,612.236816 291.828674,607.413879 287.288422,602.608215 
	C285.181427,600.378052 283.776794,597.439392 281.525055,595.407959 
	C280.195007,594.208069 277.831085,594.154053 275.932098,593.584778 
	C275.397827,595.659302 273.936340,598.056824 274.523010,599.740784 
	C275.730042,603.205261 278.118622,606.243408 279.831787,609.554871 
	C280.353821,610.563904 280.854584,612.413574 280.349487,612.993286 
	C276.274231,617.670776 280.596405,620.219116 282.936157,622.903625 
	C285.863403,626.262146 289.362457,629.120789 292.599915,632.210632 
	C298.039062,637.402039 298.848267,651.319397 294.186279,657.492859 
	C293.326599,658.631287 292.942200,660.128723 292.378693,661.371521 
	C297.861176,665.308716 300.992950,670.530457 301.028625,677.528503 
	C301.047668,681.264160 299.765503,685.423157 304.254333,687.958740 
	C304.896667,688.321594 305.200317,690.923462 304.644104,691.488586 
	C302.050079,694.124329 302.850159,696.628845 304.564056,699.032776 
	C307.577209,703.259155 307.079987,707.273315 304.815186,711.671143 
	C303.219513,714.769409 302.378387,718.256348 301.131714,721.762878 
	C296.265259,722.702698 290.536530,722.114441 288.411194,729.445862 
	C287.776733,731.634460 282.732941,732.537964 279.716553,734.044739 
	C276.394318,735.704346 273.078949,737.377747 269.763214,739.050293 
	C265.854950,741.021790 264.545013,740.220337 263.920715,735.997375 
	C263.680298,734.371155 262.909332,732.487915 261.746246,731.398621 
	C258.698395,728.544189 257.511017,726.241394 262.297913,724.103943 
	C262.687042,723.930176 262.778503,723.089844 263.581299,721.235901 
	C261.121368,722.568542 259.851166,723.717346 258.455750,723.897705 
	C256.655182,724.130432 253.767670,724.266907 253.074005,723.258179 
	C250.562134,719.605225 248.190842,720.828430 245.469772,722.399048 
	C248.271851,724.545959 253.812088,723.728333 252.748962,730.093201 
	C248.022461,729.694336 243.301849,729.889282 238.993805,728.649963 
	C237.187119,728.130249 236.254456,724.572327 234.225830,721.252380 
	C231.946304,721.014526 227.931320,718.020325 223.795334,722.350098 
	C228.901337,721.784851 232.748962,722.962830 233.900940,728.472961 
	C229.791031,730.417542 224.024780,729.867737 222.190094,736.474487 
	C226.220795,735.631714 229.828552,734.877380 233.597992,734.089172 
	C234.742859,738.360901 234.012955,741.413025 229.056747,742.522705 
	C226.074356,743.190491 223.200851,744.344482 220.139206,745.640015 
	C218.285645,746.000000 216.571289,746.000000 214.309341,745.653625 
	C210.800140,744.030823 208.750366,742.494019 208.820099,738.563477 
	C208.875504,735.441467 207.569412,732.247192 206.595856,729.171143 
	C205.891647,726.946045 203.394623,723.726868 204.057556,722.940186 
	C205.673615,721.022522 208.630402,720.190796 211.117752,719.079407 
	C211.818665,718.766174 212.975754,719.308289 213.550598,718.914062 
	C214.663437,718.151062 215.828354,717.138489 216.338669,715.956116 
	C216.604111,715.341187 215.745575,713.858459 214.998993,713.268311 
	C213.411423,712.013306 211.673767,710.804199 209.802536,710.081665 
	C205.906342,708.577332 205.726318,706.718811 208.931610,704.353943 
	C211.093460,702.758789 213.344406,701.262268 215.665955,699.911438 
	C218.508545,698.257568 220.587463,698.306335 221.049164,702.404236 
	C221.520172,706.584900 228.484436,711.580261 232.615173,710.977112 
	C235.020905,710.625916 237.422852,710.248779 241.332336,709.654358 
	C237.454071,708.534973 234.823181,707.616882 232.120590,707.027710 
	C226.001083,705.693604 221.072372,702.286255 221.812439,695.300476 
	C222.167389,691.949951 220.531845,688.388489 219.910156,685.453308 
	C216.865067,686.254150 215.150558,686.705078 213.449493,687.152466 
	C212.886673,681.076355 212.387436,675.686890 211.940521,670.862061 
	C209.260635,670.191650 206.307816,669.374390 203.314789,668.749634 
	C202.353058,668.548828 201.237747,668.687195 200.274048,668.958923 
	C195.203659,670.388489 191.642212,667.640686 187.917236,664.896301 
	C186.516159,663.864014 184.510010,663.653076 182.779709,663.067688 
	C182.978577,664.644653 182.630249,666.662598 183.479004,667.715820 
	C186.015182,670.862915 185.584763,672.999939 181.884247,674.707947 
	C183.675735,677.679993 183.169662,679.251587 179.970261,681.221497 
	C176.000824,683.665466 173.022308,687.838562 168.102112,683.041382 
	C167.101273,682.065613 165.153107,681.832825 164.559708,680.752991 
	C164.200424,680.099243 165.379547,678.252747 166.274292,677.341553 
	C167.507782,676.085266 169.009705,674.957581 170.602142,674.216309 
	C174.098801,672.588867 176.153641,667.492554 174.492310,663.981628 
	C172.723099,660.242615 176.895325,651.423889 180.365555,652.220581 
	C183.985840,653.051697 187.241882,655.469360 191.054077,657.393799 
	C192.537674,656.724731 194.721619,655.739868 196.878326,654.767212 
	C201.192764,661.725159 206.706573,655.732666 211.669128,656.046997 
	C209.929596,654.831604 207.487137,654.700195 206.213776,653.412598 
	C204.952438,652.137207 204.869949,649.695984 204.147858,647.371704 
	C203.749847,645.476379 203.313553,643.398682 202.790771,640.909180 
	C205.520950,641.346863 207.169815,641.611206 209.712616,642.018921 
	C208.481491,639.911560 206.848068,638.338318 207.160461,637.447144 
	C208.881592,632.537292 204.152222,631.123291 202.514801,628.091736 
	C201.838745,626.840088 200.973846,625.690491 200.194855,624.494446 
	C201.895706,623.663757 203.694519,622.015503 205.273193,622.204651 
	C207.352585,622.453857 209.258987,624.146667 209.976715,624.535156 
	C214.243805,624.788757 217.463516,624.980103 221.280823,625.206970 
	C220.753738,623.429871 220.543457,619.858521 219.433456,619.552612 
	C216.831940,618.835876 214.406403,615.652771 210.986938,618.239746 
	C210.058884,618.941833 207.782974,617.862427 206.125702,617.600647 
	C206.032135,616.912415 205.938568,616.224243 205.845001,615.536011 
	C204.174316,616.853577 202.674271,618.822815 200.787918,619.316772 
	C198.635269,619.880432 196.124603,619.215942 193.809311,618.840088 
	C193.525711,618.794067 193.061920,616.748962 193.401657,616.450867 
	C197.058838,613.242126 193.699631,612.179626 191.684875,611.023743 
	C190.067444,610.095825 188.143631,609.701965 185.921371,608.917786 
	C187.596710,606.398560 188.848282,603.944336 190.639465,601.983093 
	C192.447784,600.002991 194.791275,598.511658 196.902847,596.804199 
	C188.922821,590.470947 188.928360,590.469238 186.875717,583.705017 
	C186.797607,583.447571 186.407104,583.284973 186.301529,583.195862 
	C184.517761,583.195862 182.878830,583.195862 181.210938,583.195862 
	C181.140427,583.869751 180.897766,584.443359 181.073807,584.822449 
	C181.685608,586.139648 182.428467,587.397583 183.147247,588.663391 
	C184.955307,591.847534 184.051041,593.707764 180.554688,594.000366 
	C175.699799,594.406616 173.209900,592.812500 172.516754,587.359680 
	C171.876816,582.325317 173.012177,578.047729 177.798676,577.200623 
	C183.292053,576.228455 189.051239,574.228455 194.225708,578.559082 
	C194.717545,578.970703 195.772385,578.850464 196.542343,578.765137 
	C200.386734,578.339478 203.998657,582.363586 202.959564,585.971863 
	C201.244736,591.926636 203.335251,594.702515 208.965256,592.784180 
	C214.537033,590.885559 214.070541,593.975708 213.956390,597.330688 
	C213.916962,598.489380 213.484390,599.634644 213.168640,601.071716 
	C216.534821,599.581116 216.534821,599.581116 217.408264,591.780090 
	C219.236984,592.393433 220.969315,592.974487 222.701645,593.555542 
	C222.857559,593.350891 223.013489,593.146240 223.169403,592.941589 
	C220.222412,590.448669 217.275421,587.955750 214.812195,585.872070 
	C217.514313,583.538086 219.121704,581.463379 221.237076,580.464417 
	C225.724899,578.345398 230.500946,576.844482 235.106018,574.960999 
	C236.398331,574.432495 237.555679,573.519104 238.685745,572.664307 
	C239.767548,571.846069 240.753540,570.895935 241.743942,569.963806 
	C242.514893,569.238159 243.736053,568.497375 243.811005,567.676880 
	C243.874634,566.980530 242.712097,565.742188 241.866913,565.485596 
	C240.291779,565.007507 238.552902,565.068787 236.912720,564.930786 
	C236.943268,564.955933 236.999191,565.011963 237.283630,564.728760 
	C235.469925,562.734802 233.400452,560.987061 231.261002,559.329590 
	C230.266434,558.559082 229.136017,557.963928 228.067169,557.289307 
	C228.958054,556.520874 229.765564,555.616211 230.755875,555.010254 
	C233.437454,553.369324 236.196625,551.855164 238.925018,550.290710 
	C238.723328,549.734558 238.521622,549.178345 238.319916,548.622192 
	C229.950760,551.082275 221.505508,554.295471 213.999084,545.036255 
	C213.999084,547.366943 214.272049,548.239990 213.951950,548.649902 
	C212.545486,550.451233 211.120239,552.311768 209.352493,553.708862 
	C208.866943,554.092651 206.899597,553.227844 206.085205,552.444336 
	C204.134735,550.567688 204.622559,548.799194 206.825241,547.291016 
	C207.168137,547.056274 206.747772,545.894714 207.056030,545.392212 
	C210.010986,540.575623 210.378464,533.939697 215.775879,530.955750 
	C219.444138,528.927734 223.864059,528.250122 227.961044,527.012268 
	C229.197357,526.638611 230.477844,526.411133 231.738098,526.116760 
	C231.787277,525.412659 231.836456,524.708557 231.885635,524.004517 
	C229.518295,523.551270 226.852615,522.186218 224.848099,522.841980 
	C221.118500,524.062134 218.680389,523.756226 217.384171,519.928772 
	C215.473465,520.332825 213.603333,521.379089 212.384018,520.869202 
	C207.981155,519.028015 205.853043,521.505554 202.991089,524.210510 
	C200.299423,526.754517 196.526260,527.487671 193.402557,523.923279 
	C192.439880,522.824829 191.268188,521.909546 189.130692,519.924683 
	C187.985428,523.404236 187.094345,526.111572 186.191223,528.855530 
	C180.797363,528.967896 177.232468,526.875549 174.665482,522.726746 
	C171.111938,521.532837 168.596649,520.687683 166.417557,519.955566 
	C164.708328,520.323792 163.011368,520.689331 161.178192,521.084229 
	C161.048615,515.205566 165.608627,507.619293 169.275269,506.325043 
	C173.583099,504.804413 177.780121,502.969910 182.025208,501.271545 
	C182.011871,500.810760 181.998535,500.349945 181.985184,499.889160 
	C178.925293,498.524139 173.974625,497.948975 179.974304,492.722015 
	C175.936798,493.270172 173.256393,493.634094 170.563644,493.999664 
	C168.904434,489.775360 167.330154,485.767303 165.754349,481.755341 
	C173.461853,478.940338 175.807190,472.473450 170.425201,468.205597 
	C166.308792,464.941315 168.734604,463.461182 170.959244,461.630524 
	C173.526871,459.517639 176.368591,457.737854 179.091278,455.813416 
	C177.488068,454.417297 176.137253,454.471710 175.087036,453.936401 
	C173.611481,453.184265 172.359177,451.994080 171.011414,450.991241 
	C172.421753,449.995361 173.714203,448.689240 175.277252,448.095154 
	C176.699295,447.554657 178.415329,447.787689 180.001755,447.679779 
	C179.988861,447.211853 179.975967,446.743958 179.963074,446.276031 
	C177.009186,445.657684 174.055298,445.039337 170.691971,444.335266 
	C171.091751,442.750946 171.325500,441.154999 171.917099,439.705048 
	C172.342346,438.662750 173.245270,437.815369 173.935135,436.881042 
	C173.415817,436.597687 172.603836,435.947174 172.424438,436.090210 
	C171.217300,437.052429 169.768417,437.996796 169.120239,439.304901 
	C168.246353,441.068512 168.022446,443.154205 167.482147,445.246826 
	C161.628372,444.150482 161.701904,435.647644 154.795410,436.121643 
	C155.651474,438.185089 156.320160,439.796936 157.519119,442.686951 
	C152.804901,441.580139 149.039261,440.696014 146.153748,440.018555 
	C143.815399,442.689636 141.505203,445.328522 139.195007,447.967407 
	C137.688660,445.209961 136.182312,442.452484 134.091309,438.624817 
	C133.018768,439.379272 130.998245,440.346344 129.609039,441.883820 
	C127.500175,444.217773 126.361694,447.780853 123.880791,449.365265 
	C113.222107,456.172150 102.907524,463.797852 89.942467,466.034821 
	C81.667694,467.462555 75.676056,472.892731 69.355904,477.931519 
	C64.762512,481.593597 66.661949,486.517273 66.000633,489.694061 
	C62.873993,491.133759 59.736965,491.575623 58.552887,493.333221 
	C56.125629,496.936066 54.232773,498.300659 50.320316,495.324890 
	C49.225761,494.492371 46.828186,495.527649 45.053822,495.386292 
	C43.586483,495.269379 41.234726,495.031464 40.926380,494.219788 
	C40.463940,493.002502 40.991901,490.844574 41.906349,489.781219 
	C44.096992,487.233765 46.758438,485.091187 49.229847,482.785217 
	C48.984478,482.283722 48.739105,481.782257 48.493736,481.280792 
	C46.937061,481.731415 45.333599,482.063354 43.832561,482.655121 
	C39.474022,484.373260 34.949024,485.822571 30.882751,488.084595 
	C27.001247,490.243805 23.474504,493.124725 20.044203,495.990540 
	C15.383715,499.884064 11.103395,504.243286 6.334859,507.988770 
	C5.233248,508.854004 2.813292,508.040802 1.000000,508.000000 
	C1.000000,506.611115 1.000000,505.222198 1.000000,503.416656 
	C8.544029,493.964050 18.526033,487.671326 27.024820,479.822754 
	C33.718674,473.640991 42.549088,471.366455 48.808731,464.936646 
	C50.769630,462.922424 53.404282,463.261017 54.029789,466.971161 
	C54.203072,467.998932 54.749672,468.963776 55.650131,471.347900 
	C56.520203,468.455444 56.968109,466.966400 57.834354,464.086670 
	C60.691433,466.062805 63.295807,467.864166 66.433945,470.034729 
	C67.545563,468.600159 68.872963,466.887115 70.226860,465.139893 
	C67.539429,463.045135 65.112305,461.198761 62.744888,459.278778 
	C62.080578,458.740082 60.994781,457.601135 61.126667,457.395935 
	C61.675255,456.542511 62.669666,455.296204 63.401814,455.358276 
	C66.504295,455.621277 69.571510,456.300354 72.182800,456.747192 
	C73.104469,454.592590 73.751991,451.484985 75.595436,449.473450 
	C76.456573,448.533783 79.631195,449.714325 82.401550,450.000427 
	C82.582481,449.320587 82.980606,447.824585 83.415871,446.189056 
	C86.557014,445.840851 89.476288,445.426849 91.189987,449.356384 
	C92.112587,451.471924 93.681381,452.049774 95.461899,449.257263 
	C97.425903,446.176941 100.084869,443.482941 102.737434,440.928345 
	C103.707787,439.993774 105.527969,439.941620 106.960480,439.486938 
	C107.266441,441.073761 111.671371,440.508911 109.223969,443.721344 
	C109.143898,443.826477 111.004173,445.409851 112.020218,446.360535 
	C113.933624,443.379700 114.854172,441.439362 113.346634,437.820770 
	C111.298065,432.903534 116.616661,430.048767 120.103554,429.255707 
	C136.940262,425.426270 148.927963,413.540527 162.788589,404.768707 
	C167.584122,401.733826 172.371933,398.537872 177.539276,396.273590 
	C185.637573,392.725037 191.125793,386.154053 194.690353,379.049011 
	C203.003403,362.479034 217.031052,354.166656 233.356766,347.922913 
	C246.016449,343.081238 258.886444,338.476807 269.797180,330.017059 
	C274.302002,326.524200 279.309998,323.424805 282.988861,319.190491 
	C287.063721,314.500488 290.137268,308.859985 293.184296,303.376373 
	C297.720367,295.212921 300.883789,286.095673 310.125854,282.270660 
	C309.246460,280.063019 307.894531,278.145538 308.336090,277.543488 
	C311.803864,272.815552 308.557159,268.835236 307.215637,264.695160 
	C306.319122,261.928345 305.274506,259.155762 303.872894,256.619659 
	C302.020721,253.268219 302.628967,251.677399 306.924988,251.879501 
	C306.924988,247.541916 306.241791,243.259445 307.137573,239.337631 
	C307.876038,236.104599 310.042633,232.883484 312.371765,230.404434 
	C315.569153,227.001266 316.078339,224.758789 312.917084,221.432724 
	C308.206360,216.476410 308.215576,215.990311 312.411133,210.035416 
	C313.242035,208.856079 313.840363,207.479721 314.358429,206.122620 
	C314.860992,204.806213 315.122223,203.397705 315.533691,201.864670 
	C317.157196,202.293671 318.574890,202.598969 319.947937,203.042587 
	C327.860046,205.598862 335.477051,200.292862 336.057617,191.967010 
	C336.200775,189.913925 336.673218,187.702377 337.646088,185.919342 
	C342.376648,177.249420 341.321472,167.516159 342.864349,158.278168 
	C343.129395,156.691147 341.615051,154.806946 340.461517,151.896484 
	C342.766815,150.702148 345.786163,148.638870 349.121338,147.502655 
	C359.535217,143.954895 366.389160,135.673767 374.427643,128.982452 
	C377.283569,126.605133 379.718170,123.725929 382.408752,121.142120 
	C382.959045,120.613686 383.894592,119.944580 384.482422,120.079803 
	C391.341187,121.657623 395.970734,117.220474 399.929688,114.685539 
	C402.740692,115.707710 405.286560,117.568504 406.519196,116.922707 
	C412.412537,113.835106 408.381439,108.933258 407.765442,104.705864 
	C410.003784,103.971451 411.956146,103.330872 414.472137,102.505371 
	C412.096039,99.328697 414.200867,93.943336 408.907013,93.115700 
	C405.182373,92.533386 401.293213,93.003159 397.424896,93.003159 
	C396.862244,91.067711 396.376007,89.395142 395.680786,87.003647 
	C398.361786,87.003647 400.614502,86.939964 402.861969,87.021088 
	C405.231323,87.106606 408.548859,88.386841 409.772247,87.283112 
	C412.703552,84.638481 414.662476,80.910622 416.974030,77.592216 
	C417.227112,77.228928 417.220520,76.684776 417.560242,75.311134 
	C419.924316,76.950218 422.086975,78.171387 423.889343,79.792961 
	C425.182129,80.956100 426.230469,82.543816 426.974457,84.135361 
	C429.184601,88.863297 436.532013,88.347000 436.989716,95.898109 
	C437.275787,100.617561 442.490479,105.226204 445.961029,109.505417 
	C448.757111,112.953011 452.745117,115.478622 455.317749,119.051620 
	C458.670197,123.707695 461.291962,128.918427 463.966217,134.027588 
	C468.023621,141.779297 472.010834,149.577957 475.649689,157.529739 
	C476.360199,159.082413 475.346832,161.423981 475.016113,164.420578 
	C476.156525,165.198563 478.836243,166.268036 480.337372,168.236374 
	C482.365906,170.896240 484.117584,174.109253 484.824066,177.339493 
	C485.533966,180.585526 487.001221,182.200516 489.886047,181.417465 
	C494.068604,180.282181 500.804047,182.070312 503.224609,185.627304 
	C506.643280,190.650894 508.754883,191.437668 513.863892,188.510895 
	C517.394714,186.488159 521.550598,186.147980 524.847473,183.243195 
	C527.493591,180.911789 531.306213,181.447296 534.182800,182.725266 
	C540.592712,179.871933 547.005798,176.951050 553.475647,174.161987 
	C557.354126,172.490005 558.310059,170.330948 554.480835,166.853470 
	C556.833618,165.047302 558.943115,163.427948 561.483582,161.477722 
	C562.261780,164.717468 562.069702,168.816101 566.711853,166.856277 
	C567.654175,166.458420 568.157593,164.516403 568.429749,163.196823 
	C568.644104,162.157394 567.727844,160.244156 568.118958,159.997894 
	C569.474731,159.144257 571.734985,157.930878 572.664856,158.491196 
	C578.348450,161.915970 582.498779,158.942368 587.073547,156.058746 
	C591.710571,153.135895 600.405396,155.088928 603.775391,159.226501 
	C604.924255,160.636993 606.212219,161.934128 607.496277,163.348831 
	C611.607300,161.245987 615.160400,158.768890 619.101074,157.613785 
	C622.476074,156.624481 626.339172,156.724869 629.907776,157.097305 
	C636.376526,157.772400 642.794006,158.966385 649.211731,160.066727 
	C649.971558,160.196991 650.563354,161.151672 651.293823,161.631805 
	C661.751404,168.506042 671.278076,171.295151 682.786865,161.746735 
	C685.450867,159.536514 688.346802,157.605835 691.260803,155.454361 
	C689.891846,153.487991 688.736145,151.827911 687.347717,149.833542 
	C696.798462,146.928116 701.812378,139.488464 707.956177,133.476166 
	C713.956970,127.603828 714.689697,128.169861 719.480896,132.806778 
	C720.220703,133.522766 722.035522,133.377838 723.306091,133.228821 
	C724.718323,133.063156 726.636963,131.627594 727.371765,132.136322 
	C734.801636,137.280579 745.943909,135.058533 751.301758,144.102585 
	C753.269348,147.423920 755.445190,151.266968 752.489563,154.768234 
	C749.366882,158.467346 749.842163,160.682129 754.523132,162.584305 
	C749.490540,167.083145 752.870850,169.453934 756.657288,171.904068 
	C757.000000,175.692902 757.000000,179.385818 757.000000,183.539352 
z"/>
<path fill="#FFFFFF" opacity="1.000000" stroke="none" 
	d="
M236.882187,564.905579 
	C238.552902,565.068787 240.291779,565.007507 241.866913,565.485596 
	C242.712097,565.742188 243.874634,566.980530 243.811005,567.676880 
	C243.736053,568.497375 242.514893,569.238159 241.743942,569.963806 
	C240.753540,570.895935 239.767548,571.846069 238.685745,572.664307 
	C237.555679,573.519104 236.398331,574.432495 235.106018,574.960999 
	C230.500946,576.844482 225.724899,578.345398 221.237076,580.464417 
	C219.121704,581.463379 217.514313,583.538086 214.812195,585.872070 
	C217.275421,587.955750 220.222412,590.448669 223.169403,592.941589 
	C223.013489,593.146240 222.857559,593.350891 222.701645,593.555542 
	C220.969315,592.974487 219.236984,592.393433 217.408264,591.780090 
	C216.534821,599.581116 216.534821,599.581116 213.168640,601.071716 
	C213.484390,599.634644 213.916962,598.489380 213.956390,597.330688 
	C214.070541,593.975708 214.537033,590.885559 208.965256,592.784180 
	C203.335251,594.702515 201.244736,591.926636 202.959564,585.971863 
	C203.998657,582.363586 200.386734,578.339478 196.542343,578.765137 
	C195.772385,578.850464 194.717545,578.970703 194.225708,578.559082 
	C189.051239,574.228455 183.292053,576.228455 177.798676,577.200623 
	C173.012177,578.047729 171.876816,582.325317 172.516754,587.359680 
	C173.209900,592.812500 175.699799,594.406616 180.554688,594.000366 
	C184.051041,593.707764 184.955307,591.847534 183.147247,588.663391 
	C182.428467,587.397583 181.685608,586.139648 181.073807,584.822449 
	C180.897766,584.443359 181.140427,583.869751 181.210938,583.195862 
	C182.878830,583.195862 184.517761,583.195862 186.301529,583.195862 
	C186.407104,583.284973 186.797607,583.447571 186.875717,583.705017 
	C188.928360,590.469238 188.922821,590.470947 196.902847,596.804199 
	C194.791275,598.511658 192.447784,600.002991 190.639465,601.983093 
	C188.848282,603.944336 187.596710,606.398560 185.921371,608.917786 
	C188.143631,609.701965 190.067444,610.095825 191.684875,611.023743 
	C193.699631,612.179626 197.058838,613.242126 193.401657,616.450867 
	C193.061920,616.748962 193.525711,618.794067 193.809311,618.840088 
	C196.124603,619.215942 198.635269,619.880432 200.787918,619.316772 
	C202.674271,618.822815 204.174316,616.853577 205.845001,615.536011 
	C205.938568,616.224243 206.032135,616.912415 206.125702,617.600647 
	C207.782974,617.862427 210.058884,618.941833 210.986938,618.239746 
	C214.406403,615.652771 216.831940,618.835876 219.433456,619.552612 
	C220.543457,619.858521 220.753738,623.429871 221.280823,625.206970 
	C217.463516,624.980103 214.243805,624.788757 209.976715,624.535156 
	C209.258987,624.146667 207.352585,622.453857 205.273193,622.204651 
	C203.694519,622.015503 201.895706,623.663757 200.194855,624.494446 
	C200.973846,625.690491 201.838745,626.840088 202.514801,628.091736 
	C204.152222,631.123291 208.881592,632.537292 207.160461,637.447144 
	C206.848068,638.338318 208.481491,639.911560 209.712616,642.018921 
	C207.169815,641.611206 205.520950,641.346863 202.790771,640.909180 
	C203.313553,643.398682 203.749847,645.476379 204.147858,647.371704 
	C204.869949,649.695984 204.952438,652.137207 206.213776,653.412598 
	C207.487137,654.700195 209.929596,654.831604 211.669128,656.046997 
	C206.706573,655.732666 201.192764,661.725159 196.878326,654.767212 
	C194.721619,655.739868 192.537674,656.724731 191.054077,657.393799 
	C187.241882,655.469360 183.985840,653.051697 180.365555,652.220581 
	C176.895325,651.423889 172.723099,660.242615 174.492310,663.981628 
	C176.153641,667.492554 174.098801,672.588867 170.602142,674.216309 
	C169.009705,674.957581 167.507782,676.085266 166.274292,677.341553 
	C165.379547,678.252747 164.200424,680.099243 164.559708,680.752991 
	C165.153107,681.832825 167.101273,682.065613 168.102112,683.041382 
	C173.022308,687.838562 176.000824,683.665466 179.970261,681.221497 
	C183.169662,679.251587 183.675735,677.679993 181.884247,674.707947 
	C185.584763,672.999939 186.015182,670.862915 183.479004,667.715820 
	C182.630249,666.662598 182.978577,664.644653 182.779709,663.067688 
	C184.510010,663.653076 186.516159,663.864014 187.917236,664.896301 
	C191.642212,667.640686 195.203659,670.388489 200.274048,668.958923 
	C201.237747,668.687195 202.353058,668.548828 203.314789,668.749634 
	C206.307816,669.374390 209.260635,670.191650 211.940521,670.862061 
	C212.387436,675.686890 212.886673,681.076355 213.449493,687.152466 
	C215.150558,686.705078 216.865067,686.254150 219.910156,685.453308 
	C220.531845,688.388489 222.167389,691.949951 221.812439,695.300476 
	C221.072372,702.286255 226.001083,705.693604 232.120590,707.027710 
	C234.823181,707.616882 237.454071,708.534973 241.332336,709.654358 
	C237.422852,710.248779 235.020905,710.625916 232.615173,710.977112 
	C228.484436,711.580261 221.520172,706.584900 221.049164,702.404236 
	C220.587463,698.306335 218.508545,698.257568 215.665955,699.911438 
	C213.344406,701.262268 211.093460,702.758789 208.931610,704.353943 
	C205.726318,706.718811 205.906342,708.577332 209.802536,710.081665 
	C211.673767,710.804199 213.411423,712.013306 214.998993,713.268311 
	C215.745575,713.858459 216.604111,715.341187 216.338669,715.956116 
	C215.828354,717.138489 214.663437,718.151062 213.550598,718.914062 
	C212.975754,719.308289 211.818665,718.766174 211.117752,719.079407 
	C208.630402,720.190796 205.673615,721.022522 204.057556,722.940186 
	C203.394623,723.726868 205.891647,726.946045 206.595856,729.171143 
	C207.569412,732.247192 208.875504,735.441467 208.820099,738.563477 
	C208.750366,742.494019 210.800140,744.030823 213.880875,745.653625 
	C143.068924,746.000000 72.137840,746.000000 1.000000,746.000000 
	C1.000000,666.979248 1.000000,587.958252 1.000000,508.468628 
	C2.813292,508.040802 5.233248,508.854004 6.334859,507.988770 
	C11.103395,504.243286 15.383715,499.884064 20.044203,495.990540 
	C23.474504,493.124725 27.001247,490.243805 30.882751,488.084595 
	C34.949024,485.822571 39.474022,484.373260 43.832561,482.655121 
	C45.333599,482.063354 46.937061,481.731415 48.493736,481.280792 
	C48.739105,481.782257 48.984478,482.283722 49.229847,482.785217 
	C46.758438,485.091187 44.096992,487.233765 41.906349,489.781219 
	C40.991901,490.844574 40.463940,493.002502 40.926380,494.219788 
	C41.234726,495.031464 43.586483,495.269379 45.053822,495.386292 
	C46.828186,495.527649 49.225761,494.492371 50.320316,495.324890 
	C54.232773,498.300659 56.125629,496.936066 58.552887,493.333221 
	C59.736965,491.575623 62.873993,491.133759 66.000633,489.694061 
	C66.661949,486.517273 64.762512,481.593597 69.355904,477.931519 
	C75.676056,472.892731 81.667694,467.462555 89.942467,466.034821 
	C102.907524,463.797852 113.222107,456.172150 123.880791,449.365265 
	C126.361694,447.780853 127.500175,444.217773 129.609039,441.883820 
	C130.998245,440.346344 133.018768,439.379272 134.091309,438.624817 
	C136.182312,442.452484 137.688660,445.209961 139.195007,447.967407 
	C141.505203,445.328522 143.815399,442.689636 146.153748,440.018555 
	C149.039261,440.696014 152.804901,441.580139 157.519119,442.686951 
	C156.320160,439.796936 155.651474,438.185089 154.795410,436.121643 
	C161.701904,435.647644 161.628372,444.150482 167.482147,445.246826 
	C168.022446,443.154205 168.246353,441.068512 169.120239,439.304901 
	C169.768417,437.996796 171.217300,437.052429 172.424438,436.090210 
	C172.603836,435.947174 173.415817,436.597687 173.935135,436.881042 
	C173.245270,437.815369 172.342346,438.662750 171.917099,439.705048 
	C171.325500,441.154999 171.091751,442.750946 170.691971,444.335266 
	C174.055298,445.039337 177.009186,445.657684 179.963074,446.276031 
	C179.975967,446.743958 179.988861,447.211853 180.001755,447.679779 
	C178.415329,447.787689 176.699295,447.554657 175.277252,448.095154 
	C173.714203,448.689240 172.421753,449.995361 171.011414,450.991241 
	C172.359177,451.994080 173.611481,453.184265 175.087036,453.936401 
	C176.137253,454.471710 177.488068,454.417297 179.091278,455.813416 
	C176.368591,457.737854 173.526871,459.517639 170.959244,461.630524 
	C168.734604,463.461182 166.308792,464.941315 170.425201,468.205597 
	C175.807190,472.473450 173.461853,478.940338 165.754349,481.755341 
	C167.330154,485.767303 168.904434,489.775360 170.563644,493.999664 
	C173.256393,493.634094 175.936798,493.270172 179.974304,492.722015 
	C173.974625,497.948975 178.925293,498.524139 181.985184,499.889160 
	C181.998535,500.349945 182.011871,500.810760 182.025208,501.271545 
	C177.780121,502.969910 173.583099,504.804413 169.275269,506.325043 
	C165.608627,507.619293 161.048615,515.205566 161.178192,521.084229 
	C163.011368,520.689331 164.708328,520.323792 166.417557,519.955566 
	C168.596649,520.687683 171.111938,521.532837 174.665482,522.726746 
	C177.232468,526.875549 180.797363,528.967896 186.191223,528.855530 
	C187.094345,526.111572 187.985428,523.404236 189.130692,519.924683 
	C191.268188,521.909546 192.439880,522.824829 193.402557,523.923279 
	C196.526260,527.487671 200.299423,526.754517 202.991089,524.210510 
	C205.853043,521.505554 207.981155,519.028015 212.384018,520.869202 
	C213.603333,521.379089 215.473465,520.332825 217.384171,519.928772 
	C218.680389,523.756226 221.118500,524.062134 224.848099,522.841980 
	C226.852615,522.186218 229.518295,523.551270 231.885635,524.004517 
	C231.836456,524.708557 231.787277,525.412659 231.738098,526.116760 
	C230.477844,526.411133 229.197357,526.638611 227.961044,527.012268 
	C223.864059,528.250122 219.444138,528.927734 215.775879,530.955750 
	C210.378464,533.939697 210.010986,540.575623 207.056030,545.392212 
	C206.747772,545.894714 207.168137,547.056274 206.825241,547.291016 
	C204.622559,548.799194 204.134735,550.567688 206.085205,552.444336 
	C206.899597,553.227844 208.866943,554.092651 209.352493,553.708862 
	C211.120239,552.311768 212.545486,550.451233 213.951950,548.649902 
	C214.272049,548.239990 213.999084,547.366943 213.999084,545.036255 
	C221.505508,554.295471 229.950760,551.082275 238.319916,548.622192 
	C238.521622,549.178345 238.723328,549.734558 238.925018,550.290710 
	C236.196625,551.855164 233.437454,553.369324 230.755875,555.010254 
	C229.765564,555.616211 228.958054,556.520874 228.067169,557.289307 
	C229.136017,557.963928 230.266434,558.559082 231.261002,559.329590 
	C233.400452,560.987061 235.469925,562.734802 236.918427,564.719055 
	C234.607529,564.011963 232.994049,562.936523 231.275009,562.070679 
	C227.686966,560.263428 221.624878,563.570984 222.224915,567.413025 
	C222.633636,570.030151 224.592392,573.882385 226.586380,574.405396 
	C229.150650,575.077942 232.660965,573.378723 235.363235,571.945801 
	C238.121719,570.483154 239.102722,567.842102 236.882187,564.905579 
z"/>
<path fill="#669900" opacity="1.000000" stroke="none" 
	d="
M453.562500,1.000000 
	C458.990265,4.400053 460.357391,9.932081 461.931610,15.169034 
	C463.211975,19.428448 465.654572,22.113531 470.124023,23.367735 
	C469.385315,26.347147 468.430298,29.098501 468.079773,31.924826 
	C467.735321,34.702358 468.004700,37.556015 468.620575,40.358929 
	C471.692657,33.298031 471.692657,33.298031 478.463684,36.590492 
	C483.374481,34.735031 487.778809,33.070942 492.144836,31.421309 
	C493.057587,34.933987 492.927795,39.947647 495.350006,42.134254 
	C497.568329,44.136772 502.543213,43.085659 506.721375,43.412830 
	C506.721375,43.886726 506.721375,45.645126 506.721375,47.413963 
	C504.504547,48.431942 502.222961,49.479671 499.958527,50.519520 
	C500.808899,52.619751 501.525970,54.390755 502.225067,56.117367 
	C494.880066,60.297585 494.855591,60.322071 489.290649,54.759918 
	C487.034485,52.504921 485.245758,51.961491 483.755188,55.512962 
	C483.332153,56.520874 482.277496,57.263672 481.044495,58.656857 
	C479.867706,57.114265 478.492371,56.025337 478.113129,54.659798 
	C477.410065,52.128101 475.160431,51.968529 473.715942,50.733746 
	C467.156525,45.126663 459.821228,49.135120 452.993652,48.251366 
	C449.659271,47.819771 445.820343,49.673950 442.504333,51.153633 
	C438.984833,52.724121 435.822815,55.090965 432.489594,57.084801 
	C427.364288,60.150585 424.391052,59.544823 420.431458,55.016441 
	C419.027069,53.410301 417.171387,52.198772 415.791656,51.034817 
	C419.102661,42.955360 426.375061,40.885704 432.428192,37.493782 
	C433.577942,36.849518 436.242249,38.908123 438.971161,40.034824 
	C442.971344,34.849937 436.715210,28.410336 439.895813,21.265514 
	C435.564728,22.216290 432.783112,22.826914 429.315460,23.588146 
	C429.471344,23.705324 428.824219,23.421803 428.488373,22.927011 
	C427.609558,21.632324 426.866760,20.245321 426.069763,18.895111 
	C427.644897,18.262785 429.229065,17.651890 430.792664,16.992189 
	C432.408539,16.310427 434.346954,15.918598 435.491150,14.756743 
	C436.282410,13.953238 436.631378,11.530820 436.015106,10.752004 
	C434.335754,8.629669 432.473846,6.458700 435.271637,4.522279 
	C436.872589,3.414215 439.610138,3.948346 441.835968,3.743108 
	C441.885498,4.140421 441.935059,4.537734 441.984589,4.935047 
	C443.585907,3.846469 445.187195,2.757892 446.894226,1.334657 
	C449.041656,1.000000 451.083344,1.000000 453.562500,1.000000 
M471.979156,42.231979 
	C471.504059,41.710133 471.028931,41.188286 470.553833,40.666443 
	C470.291840,41.031040 470.029877,41.395641 469.767914,41.760239 
	C470.497009,42.174263 471.226105,42.588291 471.979156,42.231979 
z"/>
<path fill="#669900" opacity="1.000000" stroke="none" 
	d="
M449.669006,89.259262 
	C446.357208,87.624916 443.289276,86.315842 439.653046,84.764275 
	C440.064545,82.966705 435.170990,79.729134 440.037872,77.129639 
	C442.598297,75.762054 449.721130,79.783966 450.761047,82.269623 
	C452.115723,80.940857 453.401703,78.980446 455.197937,78.210510 
	C456.105286,77.821602 457.936188,79.587471 459.862030,80.666107 
	C459.928986,80.204170 460.406281,79.199707 460.107788,78.553787 
	C459.094940,76.362068 458.326843,73.515892 456.532440,72.323715 
	C449.983948,67.973007 452.415985,63.268806 455.894989,57.695782 
	C461.624603,58.447826 467.959900,58.999035 474.137299,60.299957 
	C475.567139,60.601063 476.815887,63.324909 477.530914,65.172699 
	C479.963379,71.458519 480.824249,71.999535 487.058502,69.950577 
	C489.161560,69.259392 491.240845,68.495796 493.330994,67.765297 
	C493.732117,68.197418 494.133209,68.629532 494.534332,69.061653 
	C491.959076,72.050102 489.951202,76.326691 486.691956,77.762207 
	C479.636139,80.869904 475.766663,87.230995 470.173401,91.747742 
	C466.942261,94.357010 464.694519,98.189835 462.028717,101.491783 
	C459.572449,104.534203 453.464630,106.262482 449.853516,104.901321 
	C446.971649,103.815048 447.416321,100.495193 449.912872,98.092941 
	C449.912872,94.574234 449.912872,92.079384 449.669006,89.259262 
z"/>
<path fill="#669900" opacity="1.000000" stroke="none" 
	d="
M520.072144,27.961699 
	C516.963562,28.339661 514.077759,28.295103 511.593262,29.271667 
	C508.617798,30.441216 505.984985,32.482632 503.193420,34.152649 
	C499.849335,27.873137 501.769135,17.308065 507.055145,13.111957 
	C507.777985,12.538166 509.625610,12.634756 510.517242,13.159884 
	C513.210144,14.745913 515.688721,16.695906 518.250854,18.504007 
	C518.121521,18.934944 517.992126,19.365879 517.862793,19.796816 
	C517.565063,18.357676 517.066895,16.924862 517.021240,15.477764 
	C516.966309,13.737233 517.296265,11.984554 517.459595,10.237135 
	C518.719727,10.741039 520.267517,10.940220 521.185364,11.806709 
	C523.801392,14.276351 526.160828,17.017706 528.627747,19.659065 
	C532.882751,15.896486 537.233032,11.878464 541.785706,8.104716 
	C543.722656,6.499130 545.940552,4.515530 548.401489,7.831517 
	C550.433167,10.569146 552.508057,13.184416 549.881165,16.560045 
	C548.765991,17.993078 547.543335,19.662807 545.982605,20.364019 
	C542.408020,21.970064 541.433044,24.987946 540.159607,28.247633 
	C539.234436,30.615637 537.084717,32.505211 534.915222,35.349911 
	C533.937134,31.154276 533.326355,28.534496 532.715637,25.914717 
	C532.368713,26.004866 532.021790,26.095015 531.674866,26.185165 
	C530.784058,30.409472 529.608276,34.599590 529.096008,38.869308 
	C528.712402,42.066269 526.599243,42.675381 524.672546,41.787914 
	C523.344482,41.176186 522.081726,38.602295 522.224365,37.036015 
	C522.449463,34.565861 523.879822,32.205513 524.983948,29.317493 
	C523.351257,28.837584 521.911926,28.414490 520.072144,27.961699 
z"/>
<path fill="#669900" opacity="1.000000" stroke="none" 
	d="
M264.744446,160.749390 
	C266.355682,158.746674 267.699585,157.009598 269.105042,155.192978 
	C270.961029,155.192978 273.997589,156.101608 275.098938,155.026947 
	C278.778259,151.436844 281.764771,147.136719 284.199005,142.235168 
	C285.624939,142.235168 287.050903,142.235168 289.324524,142.235168 
	C288.823090,144.289246 288.424042,146.163696 287.902069,148.003235 
	C287.210358,150.440887 285.394501,153.075989 285.865723,155.231979 
	C287.379883,162.159790 287.699860,162.089859 281.569000,165.310852 
	C282.994843,166.587784 285.221252,167.674789 285.770874,169.321411 
	C286.354950,171.071381 286.064178,174.260880 284.876160,175.195236 
	C282.921539,176.732513 279.690460,178.047379 277.431061,177.536957 
	C270.326324,175.931915 269.760468,175.914429 267.275848,183.551178 
	C265.749176,182.431427 264.203430,181.657379 263.161102,180.449066 
	C261.588318,178.625809 260.488708,176.401215 258.972076,174.521362 
	C255.261902,169.922623 255.359634,170.177429 260.326508,166.764099 
	C262.160736,165.503586 263.119202,162.968689 264.744446,160.749390 
z"/>
<path fill="#669900" opacity="1.000000" stroke="none" 
	d="
M305.912933,205.009186 
	C303.811249,205.544479 302.125122,206.009705 300.012329,206.592667 
	C299.596191,212.567688 305.811310,214.593414 307.933533,219.031204 
	C305.966309,220.799088 295.187256,222.231491 294.216125,220.440186 
	C292.887970,217.990387 292.561279,214.953262 292.037537,212.124893 
	C291.567230,209.585052 291.324890,206.992508 291.162994,204.411850 
	C291.107483,203.527039 291.354340,202.011307 291.879242,201.795319 
	C298.131622,199.222733 302.127960,192.889420 309.046936,191.534668 
	C309.815033,191.384293 310.934418,191.621704 311.470215,192.126114 
	C311.916595,192.546417 312.018829,194.223511 311.807343,194.319778 
	C307.636627,196.218185 308.226776,200.112564 307.689911,203.572266 
	C307.610199,204.085938 306.800507,204.486343 305.912933,205.009186 
z"/>
<path fill="#669900" opacity="1.000000" stroke="none" 
	d="
M399.547485,57.019157 
	C401.280182,57.544491 402.584045,58.054520 405.619995,59.242092 
	C402.169891,60.868587 400.002777,62.295357 397.625275,62.915146 
	C394.147644,63.821739 390.723267,64.403954 390.469330,70.166733 
	C386.295990,66.998291 382.750946,64.460182 379.440369,61.646255 
	C378.872467,61.163559 378.910858,59.276615 379.387878,58.456268 
	C379.835419,57.686584 381.226257,57.095631 382.216980,57.072720 
	C387.848389,56.942501 393.484314,57.006145 399.547485,57.019157 
z"/>
<path fill="#669900" opacity="1.000000" stroke="none" 
	d="
M237.379135,172.676025 
	C235.719864,169.983490 233.064758,167.405579 238.216019,165.700302 
	C236.938995,163.399673 235.801666,161.350693 234.407333,158.838730 
	C239.064377,157.184082 243.215729,155.615753 247.445221,154.298325 
	C248.149338,154.079010 249.551895,154.719376 249.983536,155.383652 
	C250.446152,156.095612 250.553162,157.575562 250.106491,158.252823 
	C247.534836,162.152145 244.871490,166.006256 241.981171,169.672256 
	C240.904007,171.038498 239.129990,171.855331 237.379135,172.676025 
z"/>
<path fill="#669900" opacity="1.000000" stroke="none" 
	d="
M289.770081,178.263031 
	C287.104614,174.935074 285.818756,171.637726 289.100433,168.574280 
	C290.664185,167.114532 293.241821,165.369492 294.941864,165.729462 
	C297.936768,166.363617 300.422943,168.574066 300.036499,172.479599 
	C299.830414,174.562271 299.999908,176.682114 299.999908,178.535583 
	C296.353271,178.535583 293.200409,178.535583 289.770081,178.263031 
z"/>
<path fill="#669900" opacity="1.000000" stroke="none" 
	d="
M220.395737,159.081177 
	C224.221786,157.934174 227.747101,157.070251 231.644684,156.115112 
	C230.263245,164.823013 225.342392,169.223602 217.806137,168.715714 
	C218.583511,165.539642 219.339249,162.451950 220.395737,159.081177 
z"/>
<path fill="#669900" opacity="1.000000" stroke="none" 
	d="
M510.977356,38.562531 
	C511.009857,31.003710 511.280884,30.648468 516.432190,31.001144 
	C519.999207,31.245356 520.989624,33.093594 519.238831,36.230713 
	C517.894897,38.638969 516.223450,40.931889 515.311707,43.494583 
	C514.436890,45.953506 513.702881,48.423820 510.869049,46.153641 
	C509.765594,45.269650 510.069794,42.522362 509.932556,40.609478 
	C509.895996,40.099545 510.597015,39.536697 510.977356,38.562531 
z"/>
<path fill="#669900" opacity="1.000000" stroke="none" 
	d="
M412.998169,61.347923 
	C412.999634,63.059319 412.999634,64.345390 412.999634,65.609985 
	C405.295380,65.957298 405.295380,65.957298 406.317139,54.052261 
	C410.655182,54.389229 412.060486,57.413376 412.998169,61.347923 
z"/>
<path fill="#669900" opacity="1.000000" stroke="none" 
	d="
M309.521606,170.687042 
	C308.004395,170.951828 306.733856,171.285004 305.702728,170.927536 
	C304.113190,170.376495 302.687653,169.352234 301.192566,168.528717 
	C301.966248,167.340652 302.669037,166.097305 303.538055,164.983643 
	C304.134186,164.219650 304.961456,163.636002 305.805725,162.861359 
	C308.793488,164.615494 310.748352,166.745132 309.521606,170.687042 
z"/>
<path fill="#669900" opacity="1.000000" stroke="none" 
	d="
M236.912720,564.930786 
	C239.102722,567.842102 238.121719,570.483154 235.363235,571.945801 
	C232.660965,573.378723 229.150650,575.077942 226.586380,574.405396 
	C224.592392,573.882385 222.633636,570.030151 222.224915,567.413025 
	C221.624878,563.570984 227.686966,560.263428 231.275009,562.070679 
	C232.994049,562.936523 234.607529,564.011963 236.634003,565.002197 
	C236.999191,565.011963 236.943268,564.955933 236.912720,564.930786 
z"/>
<path fill="#FFFFFF" opacity="1.000000" stroke="none" 
	d="
M471.967163,42.617149 
	C471.226105,42.588291 470.497009,42.174263 469.767914,41.760239 
	C470.029877,41.395641 470.291840,41.031040 470.553833,40.666443 
	C471.028931,41.188286 471.504059,41.710133 471.967163,42.617149 
z"/>
</svg>